<svg height="512" viewBox="0 0 60 60" width="512" xmlns="http://www.w3.org/2000/svg"><g id="Page-1" fill="none" fill-rule="evenodd"><g id="047---Ball-of-Wool" fill-rule="nonzero" transform="translate(0 -1)"><path id="Shape" d="m35.61 51.95c-.53.03-1.07.05-1.61.05-6.2353078.0053136-12.2466191-2.3242925-16.85-6.53 2.8281396-.6095638 5.6139419-1.4012126 8.34-2.37.12.21.25.45.4.7 2.3188576 3.6567924 5.7148938 6.5042919 9.72 8.15z" fill="#9d27b0"/><path id="Shape" d="m42.96 50.34c-2.3498972.9089987-4.8253774 1.4519855-7.34 1.61h-.01c-4.0051062-1.6457081-7.4011424-4.4932076-9.72-8.15-.15-.25-.28-.49-.4-.7 1.9-.68 3.96-1.5 6.1-2.51 1.6748825 2.4485581 3.6959019 4.6413641 6 6.51 1.6382934 1.31351 3.444155 2.4030801 5.37 3.24z" fill="#673ab7"/><path id="Shape" d="m45.28 49.31h-.01c-.7484043.3898516-1.5198287.7338201-2.31 1.03-1.925845-.8369199-3.7317066-1.92649-5.37-3.24 2.87-4.08 3.41-9.13 3.46-11.94 2.1364348-1.4916815 4.1648174-3.1324325 6.07-4.91.27 3.19.67 11.89-1.84 19.06z" fill="#673ab7"/><path id="Shape" d="m47.12 30.25c-.935.874-1.888 1.7-2.849 2.478.163 4.085.025 10.824-1.991 16.582h-.01c-.242.126-.489.239-.735.355.462.238.936.465 1.425.675.7901713-.2961799 1.5615957-.6401484 2.31-1.03h.01c2.51-7.17 2.11-15.87 1.84-19.06z" fill="#4527a0"/><path id="Shape" d="m52.85 43.42c-2.1200302 2.4329861-4.6905542 4.4330371-7.57 5.89 2.51-7.17 2.11-15.87 1.84-19.06 2.0688018-1.9192794 3.9753018-4.0063952 5.7-6.24 1.4841188 6.3837412 1.4943784 13.0217017.03 19.41z" fill="#9d27b0"/><path id="Shape" d="m52.82 24.01c-.786 1.02-1.6 1.985-2.438 2.914.9078468 5.481575.7270727 11.0882918-.532 16.5-1.1626117 1.3246662-2.4614347 2.5232704-3.875 3.576-.2.782-.43 1.558-.7 2.315 2.8794458-1.4569629 5.4499698-3.4570139 7.57-5.89 1.4667925-6.3895198 1.4582427-13.0292789-.025-19.415z" fill="#6a1b9a"/><path id="Shape" d="m52.85 43.42c1.4643784-6.3882983 1.4541188-13.0262588-.03-19.41v-.01c1.6023611-2.0689705 3.0369218-4.2626112 4.29-6.56 3.6147022 8.767931 1.9655243 18.8255934-4.26 25.98z" fill="#673ab7"/><path id="Shape" d="m57.11 17.44c-.61 1.117-1.254 2.187-1.923 3.218 1.4379377 5.4910539.9585056 11.3084457-1.359 16.49-.153753 2.1139144-.4808523 4.2116315-.978 6.272 6.2255243-7.1544066 7.8747022-17.212069 4.26-25.98z" fill="#4527a0"/><path id="Shape" d="m46.11 5.13c-.9466911 2.32878354-2.1366205 4.55110244-3.55 6.63-5.62-4.24-14.15-4.18-17.8-3.93.5408234-1.61838378 1.1820685-3.20145748 1.92-4.74h.01c6.4823982-1.97885682 13.4903092-1.24270139 19.42 2.04z" fill="#673ab7"/><path id="Shape" d="m34 2c-.467 0-.927.026-1.388.052 3.6851016.23019114 7.2720286 1.28187347 10.498 3.078-.7472344 1.83342014-1.6456646 3.60151465-2.686 5.286.7469111.3899572 1.4612181.8394088 2.136 1.344 1.4133795-2.07889756 2.6033089-4.30121646 3.55-6.63-3.7029396-2.06086918-7.8722091-3.13847559-12.11-3.13z" fill="#4527a0"/><path id="Shape" d="m23.44 13.14c-.3384935 1.9776546-.4725331 3.9848979-.4 5.99.0874983 2.4881626.5354971 4.9504716 1.33 7.31-1.73.78-3.42 1.44-5.01 1.98-2.1242642-7.6097582-1.4720455-15.7270457 1.84-22.9 1.7213315-1.02929566 3.5615241-1.84529349 5.48-2.43-.7379315 1.53854252-1.3791766 3.12161622-1.92 4.74-.5816775 1.73174012-1.0231012 3.5074674-1.32 5.31z" fill="#673ab7"/><path id="Shape" d="m19.36 28.42c-1.92.67-3.69 1.17-5.21 1.55-1.3742401-6.0009137-1.357137-12.2367149.05-18.23l.01-.01c1.9166236-2.49313188 4.2884964-4.60033217 6.99-6.21-3.3120455 7.1729543-3.9642642 15.2902418-1.84 22.9z" fill="#9d27b0"/><path id="Shape" d="m14.15 29.97c-2.26.56-3.98.84-4.84.97-.20452181-1.3034047-.30816278-2.620648-.31-3.94-.00764708-5.5226992 1.8216901-10.8911001 5.2-15.26-1.407137 5.9932851-1.4242401 12.2290863-.05 18.23z" fill="#673ab7"/><path id="Shape" d="m51.99 6.19c-.0126008.31597123-.0802841.62731466-.2.92-10.56 26.39-41.19 29.75-42.49 29.88-.1.01-.2.01-.3.01-.07680455.0018676-.15364737-.0014734-.23-.01-1.53569986-.1349186-2.71916608-1.4118063-2.73724073-2.9533154-.01807465-1.5415092 1.13512656-2.845795 2.66724073-3.0166846.03 0 .24-.03.61-.08.86-.13 2.58-.41 4.84-.97 1.52-.38 3.29-.88 5.21-1.55 1.59-.54 3.28-1.2 5.01-1.98 2.6707887-1.2054681 5.2334783-2.6373626 7.66-4.28 1.8238153-1.241697 3.5489509-2.6224741 5.16-4.13 2.0164259-1.8849206 3.8174481-3.9877902 5.37-6.27 1.4133795-2.07889756 2.6033089-4.30121646 3.55-6.63.03-.08.07-.16.1-.24.5467942-1.36838138 2.0064473-2.1370428 3.4441174-1.81369139 1.4376702.32335141 2.4276417 1.64296646 2.3358826 3.11369139z" fill="#e91e63"/><path id="Shape" d="m50.11 3.21c-.8514325-.33588633-1.8099552-.26215382-2.6.2.9791859.57238873 1.5518493 1.64806732 1.48 2.78-.0126008.31597123-.0802841.62731466-.2.92-9.326 23.307-34.29 28.648-40.899 29.668.28071949.1143197.57703111.1857851.879.212.07635263.0085266.15319545.0118676.23.01.1 0 .2 0 .3-.01 1.3-.13 31.93-3.49 42.49-29.88.1197159-.29268534.1873992-.60402877.2-.92.0841145-1.2954722-.6745691-2.49806653-1.88-2.98z" fill="#ad1457"/><path id="Shape" d="m55.82 10.01c-.0053639.034552-.0154587.0682012-.03.1-10.52 26.29-42.95 31.64-44.33 31.85-.0920123.0198582-.1858692.0299143-.28.03-.0596196.0083116-.1198266.0116565-.18.01-1.18392615-.0032672-2.25559205-.7013951-2.7370327-1.7830174-.48144065-1.0816222-.28291556-2.3451246.5070327-3.2269826.07635263.0085266.15319545.0118676.23.01.1 0 .2 0 .3-.01 1.3-.13 31.93-3.49 42.49-29.88.1197159-.29268534.1873992-.60402877.2-.92.6843545-.25838989 1.4406421-.2512551 2.12.02 1.5002296.59957926 2.2562052 2.27952508 1.71 3.8z" fill="#e91e63"/><path id="Shape" d="m54.11 6.21c-.6793579-.2712551-1.4356455-.27838989-2.12-.02-.0076535.17440728-.0327792.34760732-.075.517.9663481.79976049 1.3281862 2.11917024.905 3.3-.0053639.034552-.0154587.0682012-.03.1-9.466 23.659-36.66 30.358-43.021 31.616.3856659.1797047.8055308.2741828 1.231.277.0601734.0016565.1203804-.0016884.18-.01.0941308-.0000857.1879877-.0101418.28-.03 1.38-.21 33.81-5.56 44.33-31.85.0145413-.0317988.0246361-.065448.03-.1.5462052-1.52047492-.2097704-3.20042074-1.71-3.8z" fill="#ad1457"/><path id="Shape" d="m41.05 35.16c-.05 2.81-.59 7.86-3.46 11.94-2.3040981-1.8686359-4.3251175-4.0614419-6-6.51 3.3062028-1.5295938 6.4716952-3.346573 9.46-5.43z" fill="#9d27b0"/><path id="Shape" d="m37.93 37.186c-.2269073 2.8538881-1.0081532 5.6361426-2.3 8.191.6.582 1.255 1.162 1.956 1.723 2.87-4.08 3.41-9.13 3.46-11.94-1.034.728-2.075 1.391-3.116 2.026z" fill="#6a1b9a"/><path id="Shape" d="m58.72 14.26c-2.7822644 6.0381923-6.7235457 11.4710449-11.6 15.99-9.1857804 8.2509825-20.5381482 13.7051152-32.72 15.72-1.0359809.1371346-2.068673-.2747119-2.7259614-1.0871367-.6572885-.8124249-.844448-1.9083454-.4940386-2.8928633.0941308-.0000857.1879877-.0101418.28-.03 1.38-.21 33.81-5.56 44.33-31.85.0145413-.0317988.0246361-.065448.03-.1 1.0520548-.06153585 2.0592471.433461 2.653239 1.3039663.5939919.8705054.6876645 1.9888451.246761 2.9460337z" fill="#e91e63"/><path id="Shape" d="m55.82 10.01c0 .076-.324.769-.48 1.132.7081498.8829867.8553468 2.0907771.38 3.118-2.7822644 6.0381923-6.7235457 11.4710449-11.6 15.99-8.8255352 7.9317676-19.659225 13.2884253-31.32 15.486.4996384.2305613 1.0552607.3118211 1.6.234 5.9510415-.9905271 11.7360802-2.8010861 17.19-5.38 12.1-5.635 21.6-14.411 27.13-26.33.4409035-.9571886.3472309-2.0755283-.246761-2.9460337-.5939919-.8705053-1.6011842-1.36550215-2.653239-1.3039663z" fill="#ad1457"/><path id="Shape" d="m32.03 22.16c-2.4265217 1.6426374-4.9892113 3.0745319-7.66 4.28-.7945029-2.3595284-1.2425017-4.8218374-1.33-7.31 3.1989955.2614002 6.2854256 1.3016541 8.99 3.03z" fill="#9d27b0"/><path id="Shape" d="m23.04 19.13c.006.169.027.342.036.511 2.1291321.4459623 4.1512914 1.3014913 5.954 2.519-1.619996 1.0962601-3.3032533 2.0959967-5.041 2.994.12.428.235.856.381 1.286 2.6707887-1.2054681 5.2334783-2.6373626 7.66-4.28-2.7045744-1.7283459-5.7910045-2.7685998-8.99-3.03z" fill="#6a1b9a"/><path id="Shape" d="m37.19 18.03c-1.6110491 1.5075259-3.3361847 2.888303-5.16 4.13-2.7045744-1.7283459-5.7910045-2.7685998-8.99-3.03-.0725331-2.0051021.0615065-4.0123454.4-5.99 3.44.32 9.73 1.38 13.75 4.89z" fill="#673ab7"/><path id="Shape" d="m23.44 13.14c-.022.128-.036.261-.057.391 3.424.591 7.765 1.842 10.807 4.5-1.2004317 1.1250095-2.4659471 2.1784926-3.79 3.155.567129.2842429 1.1125985.6097866 1.632.974 1.8238153-1.241697 3.5489509-2.6224741 5.16-4.13-4.022-3.51-10.312-4.57-13.752-4.89z" fill="#4527a0"/><path id="Shape" d="m42.56 11.76c-1.5525519 2.2822098-3.3535741 4.3850794-5.37 6.27-4.02-3.51-10.31-4.57-13.75-4.89.2968988-1.8025326.7383225-3.57825988 1.32-5.31 3.65-.25 12.18-.31 17.8 3.93z" fill="#9d27b0"/><path id="Shape" d="m26.025 7.766c4.131.15 9.558.994 13.535 3.994-1.212641 1.7827823-2.5792032 3.4558506-4.084 5 .6025833.3794445 1.1755561.8039926 1.714 1.27 2.0164259-1.8849206 3.8174481-3.9877902 5.37-6.27-5.05-3.81-12.437-4.146-16.535-3.994z" fill="#6a1b9a"/><path id="Shape" d="m22.21 49.05c-.1438986.6399038-.2143538 1.2941305-.21 1.95.0802112 2.410644-.8422179 4.7467299-2.547744 6.452256s-4.041612 2.6279552-6.452256 2.547744c-5.07 0-7.01-3.49-8.17-5.57-.25797121-.5018596-.55910609-.9803295-.9-1.43-1.65685425-.01933-2.98432997-1.3781458-2.965-3.035s1.37814575-2.98433 3.035-2.965c3.56 0 5.13 2.82 6.07 4.51 1.13 2.02 1.53 2.49 2.93 2.49.8108207.0533105 1.6052513-.2455993 2.179826-.820174s.8734845-1.3690053.820174-2.179826c-.0197413-1.8963393.3548458-3.7760856 1.1-5.52.0164558-.0043126.0331514-.0076517.05-.01 1.5299697 1.4006737 3.2299668 2.6034384 5.06 3.58z" fill="#e91e63"/><path id="Shape" d="m59.627 14.681c.4472806-.9609805.4939045-2.0604181.1295881-3.0558161-.3643164-.9953979-1.1096433-1.80498095-2.0715881-2.2501839-.2248966-.10326776-.4593433-.18431931-.7-.242.0655204-1.6835963-.9356555-3.22620803-2.5-3.852-.5146178-.20134827-1.0660707-.29132575-1.618-.264-.384643-1.53108382-1.6362408-2.69115777-3.1920734-2.95865104-1.5558327-.26749328-3.1230098.40795055-3.9969266 1.72265104-5.9529237-3.00242538-12.8327387-3.59967382-19.214-1.668l-.064.017h-.009c-5.1372148 1.57181287-9.6599367 4.69935328-12.944 8.951-.012.015-.024.029-.036.045-3.52582838 4.5385588-5.43072378 10.1268622-5.411 15.874.00789912 1.0364758.07668429 2.0715925.206 3.1-1.68687334.3299989-2.97085297 1.7063609-3.18304221 3.4120621-.21218923 1.7057013.69543567 3.3546989 2.25004221 4.0879379-.40879733 1.0594906-.34306272 2.2434988.18050385 3.2512258.52356656 1.0077269 1.45457312 1.7421814 2.55649615 2.0167742-.0093353.2234189.0003664.447227.029.669.2722548 1.9804545 1.9619266 3.4576909 3.961 3.463.1777135-.0000523.3551858-.013087.531-.039.119-.016.486-.067 1.052-.165-.3896354 1.3672459-.5858745 2.7823218-.583 4.204.0680059.5484768-.1207305 1.0976666-.511532 1.488468-.3908014.3908015-.9399912.5795379-1.488468.511532-.806 0-.95 0-2.056-1.977-.977-1.755-2.797-5.023-6.944-5.023-2.20523275.0055131-3.99000689 1.7947604-3.99 4 .01705456 1.9640019 1.44413754 3.6311825 3.382 3.951.18.284.421.71.57.975 1.184 2.123 3.388 6.074 9.038 6.074 6.565 0 10-5.03 10-10 0-.149.015-.288.022-.432 3.4389994 1.5991598 7.1853729 2.4291088 10.978 2.432.539 0 1.077-.021 1.62-.05h.063c2.6132542-.1636469 5.185892-.7275497 7.628-1.672.7998769-.2985363 1.5809691-.645169 2.339-1.038.0278687-.0099414.0549459-.0219757.081-.036 11.9655377-6.0523365 17.3686132-20.2095376 12.478-32.695.491-.917.969-1.855 1.418-2.828zm-14.808-9.1c-.7201171 1.6550236-1.5673164 3.25179708-2.534 4.776-5.143-3.354-12.106-3.719-16.066-3.6.353-.938.74-1.882 1.18-2.828 5.8107107-1.62965736 12.019824-1.04011239 17.42 1.654zm-19.826 19.449c-.4421526-1.5490919-.7321918-3.137609-.866-4.743 2.0980355.2991882 4.1331429.9389382 6.025 1.894-1.6619172 1.0506769-3.3845996 2.002009-5.159 2.849zm-4.93 2.07c-1.693072-6.9752426-1.0208686-14.3153095 1.911-20.867.9168889-.52931277 1.8679909-.99701307 2.847-1.4-.37.9-.712 1.79-1.005 2.672v.008c-.5979599 1.78041229-1.052084 3.6059378-1.358 5.459-.3496481 2.0453847-.4880426 4.1213025-.413 6.195.0874193 2.2714395.4620648 4.5226725 1.115 6.7-1.06.457-2.095.867-3.097 1.233zm11.929-6.153c-2.43764-1.4440735-5.1497604-2.3636672-7.963-2.7-.0072175-1.3415685.0810051-2.6819511.264-4.011 3.131.372 7.894 1.338 11.344 3.841-1.1607989 1.0238778-2.3776806 1.9823598-3.645 2.871zm5.134-4.255c-3.807-2.909-9.062-4.013-12.507-4.431.2339749-1.1730692.530735-2.33273674.889-3.474 3.519-.176 10.626-.042 15.654 3.225-1.2106538 1.6715688-2.5608204 3.2375078-4.036 4.681zm-18.111-8.411c-2.1573656 6.2756421-2.4518864 13.0416321-.848 19.481-1.155.379-2.24.7-3.244.964-1.114295-5.4614186-1.0460993-11.0981386.2-16.531 1.1401707-1.4520577 2.4463921-2.76566268 3.892-3.914zm-6.651 8.355c-.4407488 4.1988286-.2326461 8.4404803.617 12.576-1.129.26-2.075.444-2.8.569-.1126021-.9228568-.1730316-1.8513331-.181-2.781-.00397141-3.5887715.8042106-7.131918 2.364-10.364zm-3.564 15.374c.022 0 .224-.026.551-.073.036 0 .072 0 .109-.008.012 0 .021-.01.033-.012.878-.13 2.555-.417 4.747-.957.0436289-.0019772.0870673-.0069893.13-.015.0292845-.0112195.0579873-.0239022.086-.038 1.5-.376 3.226-.871 5.1-1.514.025 0 .05 0 .076-.01s.057-.033.089-.046c1.553-.538 3.2-1.176 4.893-1.937.026-.006.052 0 .077-.012.0731572-.0313283.1423131-.0712776.206-.119 2.630106-1.1899492 5.1562212-2.5975091 7.552-4.208.034545-.0186452.0679385-.0393492.1-.062 1.8663461-1.2697207 3.6319214-2.6815792 5.281-4.223.0418298-.0258281.0813143-.0552742.118-.088.014-.015.018-.036.031-.052 2.0002277-1.8846681 3.7930954-3.9779116 5.348-6.244.01-.013.026-.017.035-.03.0145933-.02586.0276168-.052575.039-.08 1.4997987-2.1991791 2.7564901-4.55463708 3.748-7.025.2513102-.68330623.8540864-1.17607017 1.5737179-1.28649974.7196315-.11042956 1.4424256.17892174 1.8870586.75543346.4446329.57651172.5408582 1.34910227.2512235 2.01706628-10.337 25.829-40.387 29.12-41.661 29.247-.71095852.0714531-1.40603108-.2418133-1.82339055-.8217949-.41735948-.5799816-.49359905-1.3385653-.2-1.99.29359904-.6514347.91243203-1.096752 1.62339055-1.1682051zm.225 7.29c-.07314858-.453762.01532959-.9188033.25-1.314.041 0 .08 0 .121-.006 1.324-.132 32.539-3.551 43.316-30.495.0545895-.15307274.0996753-.30937012.135-.468.3006698-.03077635.604349.01035401.886.12 1.0044093.39408001 1.5124878 1.51619771 1.146 2.531v.005.011c-.0103108.02746443-.0189925.05551314-.026.084-10.377 25.878-42.191 31-43.54 31.2-.025 0-.107.012-.13.018-.0612669.0000154-.1224437.0046956-.183.014-.9886463.0021081-1.82892783-.7219053-1.973-1.7zm5.229 5.68c-.0840771.0127528-.1689631.0194367-.254.02-1.0021991-.0019528-1.8482147-.7453692-1.979-1.739-.0156162-.1257276-.0182969-.2527254-.008-.379 3.933-.672 33.9-6.588 44.45-31.818.1301087.0287508.2570587.0702859.379.124.481074.2224735.8537796.6273241 1.0357855 1.1251197s.1583344 1.0475711-.0657855 1.5278803c-2.7454478 5.9527577-6.6349363 11.3073878-11.447 15.759l-.011.01c-4.4751561 4.1111754-9.5622308 7.5016589-15.079 10.05-.0886544.0239889-.1734878.0603461-.252.108-.007 0-.01.012-.017.017-1.841.853-3.616 1.575-5.28 2.18-.0690947.0170806-.1361482.0415552-.2.073-3.6499138 1.351642-7.4251376 2.3371529-11.27 2.942zm30.207 3.609c-.483.24-.973.459-1.475.659-1.427951-.6513012-2.7834124-1.4510368-4.044-2.386 1.9500934-3.4026815 3.0136746-7.240927 3.093-11.162 1.423-1.014 2.833-2.127 4.219-3.325.167 3.691.124 10.452-1.791 16.214zm-8.675 2.34c-3.5850825-1.5315059-6.6511106-4.0665615-8.829-7.3 1.375-.514 2.813-1.1 4.3-1.771 1.6289383 2.25161 3.5482107 4.2781438 5.708 6.027l.046.034c1.0466579.8250598 2.1560157 1.5673065 3.318 2.22-1.48424.4109766-3.005169.6755734-4.541.79zm-13.106-2.762c-1.1720398-.6270134-2.2890118-1.3519246-3.339-2.167 1.605-.4 3.54-.945 5.693-1.679 1.6443864 2.6426281 3.863827 4.8801852 6.493 6.546-3.0961261-.3180737-6.1008755-1.2350878-8.847-2.7zm14.668-2.577c-1.5712236-1.3799024-2.9924281-2.9217752-4.24-4.6 2.351149-1.1457593 4.6300651-2.4341617 6.824-3.858-.2367954 2.9735485-1.1185758 5.8598094-2.584 8.458zm-24.348 13.41c-4.476 0-6.17-3.038-7.339-5.132-.27952662-.555381-.61851197-1.0787798-1.011-1.561-.18078653-.1883497-.42806389-.2985299-.689-.307-1.08042335-.0379041-1.9399021-.9189689-1.951-2-.00001376-1.100676.88933775-1.9944966 1.99-2 2.972 0 4.311 2.405 5.2 4 1.1 1.973 1.774 3 3.8 3 1.0784038.0609696 2.1316304-.3408408 2.8953948-1.1046052s1.1655748-1.816991 1.1046052-2.8953948c-.0068908-1.3084167.1804846-2.6106087.556-3.864 1.1143347.9098299 2.3031881 1.7243651 3.554 2.435-.0703164.4731437-.1070748.9506688-.11 1.429.0714981 2.1428513-.7483748 4.2194893-2.2644427 5.7355573-1.516068 1.5160679-3.592706 2.3359408-5.7355573 2.2644427zm33.956-11.8c1.2538918-5.4220277 1.6587094-11.0058108 1.2-16.552 1.4502834-1.3731555 2.821487-2.8274927 4.107-4.356 1.0074212 5.5125578.8958762 11.1714245-.328 16.64-1.4561192 1.6442342-3.1314878 3.0803604-4.979 4.268zm11.044-20.2c.0009145 4.325026-1.1676573 8.5698234-3.382 12.285.5984281-5.0187211.3557668-10.1021031-.718-15.041 1.0759845-1.4265225 2.077327-2.9078419 3-4.438.7313724 2.3278762 1.1023297 4.753937 1.1 7.194z" fill="#000"/></g></g></svg>